<svg xmlns="http://www.w3.org/2000/svg" xmlns:xlink="http://www.w3.org/1999/xlink" width="500" zoomAndPan="magnify" viewBox="0 0 375 374.999991" height="500" preserveAspectRatio="xMidYMid meet" version="1.0"><defs><g/><clipPath id="171304b0a1"><path d="M 5.519531 39 L 184 39 L 184 111 L 5.519531 111 Z M 5.519531 39 " clip-rule="nonzero"/></clipPath></defs><path fill="#ff9500" d="M 351.730469 232.984375 C 334.246094 317.761719 253.132812 372.671875 170.558594 355.625 C 87.984375 338.582031 36.769531 268.355469 54.253906 183.570312 C 71.738281 98.792969 149.332031 41.105469 231.90625 58.152344 C 314.480469 75.199219 369.214844 148.199219 351.730469 232.976562 Z M 351.730469 232.984375 " fill-opacity="1" fill-rule="nonzero"/><path fill="#ff8000" d="M 264.84375 68.492188 C 288.949219 100.089844 299.625 141.273438 290.460938 185.699219 C 272.976562 270.472656 191.863281 325.382812 109.289062 308.339844 C 98.042969 306.015625 87.394531 302.707031 77.40625 298.507812 C 98.457031 326.972656 130.890625 347.441406 170.566406 355.636719 C 253.140625 372.683594 334.253906 317.769531 351.738281 232.996094 C 366.777344 160.089844 328.40625 95.890625 264.84375 68.503906 Z M 264.84375 68.492188 " fill-opacity="1" fill-rule="nonzero"/><path fill="#ff6200" d="M 306.027344 94.34375 C 332.679688 126.492188 344.890625 169.523438 335.28125 216.125 C 317.796875 300.898438 236.683594 355.808594 154.109375 338.765625 C 125.746094 332.910156 101.085938 320.78125 81.640625 303.9375 C 102.691406 329.5625 133.453125 347.972656 170.558594 355.636719 C 253.132812 372.683594 334.246094 317.769531 351.730469 232.996094 C 363.140625 177.667969 343.789062 127.363281 306.019531 94.34375 Z M 306.027344 94.34375 " fill-opacity="1" fill-rule="nonzero"/><path fill="#529730" d="M 219.585938 74.933594 C 219.601562 75.140625 219.574219 75.347656 219.503906 75.558594 C 219.4375 75.773438 219.328125 75.984375 219.179688 76.199219 C 219.03125 76.414062 218.839844 76.628906 218.613281 76.84375 C 218.382812 77.058594 218.113281 77.269531 217.808594 77.484375 C 217.5 77.699219 217.15625 77.910156 216.773438 78.117188 C 216.390625 78.328125 215.972656 78.535156 215.519531 78.738281 C 215.066406 78.945312 214.582031 79.144531 214.0625 79.339844 C 213.542969 79.539062 212.992188 79.730469 212.410156 79.917969 C 211.828125 80.105469 211.214844 80.285156 210.578125 80.460938 C 209.941406 80.640625 209.277344 80.808594 208.589844 80.972656 C 207.902344 81.136719 207.191406 81.292969 206.460938 81.441406 C 205.726562 81.589844 204.976562 81.730469 204.210938 81.863281 C 203.441406 81.996094 202.660156 82.121094 201.863281 82.234375 C 201.066406 82.351562 200.257812 82.457031 199.4375 82.554688 C 198.621094 82.652344 197.796875 82.742188 196.964844 82.820312 C 196.132812 82.898438 195.296875 82.964844 194.460938 83.023438 C 193.625 83.082031 192.789062 83.128906 191.953125 83.167969 C 191.117188 83.207031 190.289062 83.234375 189.464844 83.25 C 188.640625 83.265625 187.824219 83.273438 187.019531 83.269531 C 186.214844 83.265625 185.421875 83.25 184.644531 83.226562 C 183.863281 83.199219 183.101562 83.164062 182.359375 83.117188 C 181.613281 83.070312 180.886719 83.015625 180.183594 82.949219 C 179.480469 82.882812 178.800781 82.804688 178.144531 82.71875 C 177.488281 82.632812 176.855469 82.539062 176.253906 82.433594 C 175.652344 82.328125 175.082031 82.214844 174.539062 82.09375 C 173.996094 81.96875 173.488281 81.839844 173.007812 81.699219 C 172.53125 81.558594 172.089844 81.410156 171.683594 81.257812 C 171.273438 81.101562 170.90625 80.941406 170.570312 80.773438 C 170.238281 80.601562 169.941406 80.429688 169.683594 80.246094 C 169.429688 80.066406 169.210938 79.878906 169.035156 79.6875 C 168.855469 79.496094 168.71875 79.300781 168.625 79.101562 C 168.527344 78.902344 168.472656 78.699219 168.457031 78.492188 C 168.441406 78.285156 168.46875 78.078125 168.539062 77.863281 C 168.605469 77.652344 168.714844 77.441406 168.863281 77.226562 C 169.011719 77.011719 169.203125 76.796875 169.429688 76.582031 C 169.660156 76.367188 169.929688 76.15625 170.234375 75.941406 C 170.542969 75.726562 170.886719 75.515625 171.269531 75.304688 C 171.652344 75.097656 172.070312 74.890625 172.523438 74.6875 C 172.976562 74.480469 173.460938 74.28125 173.980469 74.085938 C 174.5 73.886719 175.050781 73.695312 175.632812 73.507812 C 176.214844 73.320312 176.828125 73.136719 177.464844 72.960938 C 178.101562 72.785156 178.765625 72.617188 179.453125 72.453125 C 180.140625 72.289062 180.851562 72.132812 181.582031 71.984375 C 182.316406 71.835938 183.066406 71.695312 183.832031 71.5625 C 184.601562 71.429688 185.382812 71.304688 186.179688 71.1875 C 186.976562 71.074219 187.785156 70.96875 188.605469 70.871094 C 189.421875 70.773438 190.246094 70.683594 191.078125 70.605469 C 191.910156 70.527344 192.746094 70.460938 193.582031 70.402344 C 194.417969 70.34375 195.253906 70.292969 196.089844 70.257812 C 196.925781 70.21875 197.753906 70.191406 198.578125 70.175781 C 199.402344 70.160156 200.21875 70.152344 201.023438 70.15625 C 201.828125 70.160156 202.621094 70.175781 203.398438 70.199219 C 204.179688 70.226562 204.941406 70.261719 205.683594 70.308594 C 206.429688 70.351562 207.15625 70.410156 207.859375 70.476562 C 208.5625 70.542969 209.242188 70.617188 209.898438 70.703125 C 210.554688 70.789062 211.183594 70.886719 211.789062 70.992188 C 212.390625 71.097656 212.960938 71.210938 213.503906 71.332031 C 214.046875 71.457031 214.554688 71.585938 215.035156 71.726562 C 215.511719 71.867188 215.953125 72.011719 216.359375 72.167969 C 216.765625 72.324219 217.136719 72.484375 217.472656 72.652344 C 217.804688 72.820312 218.101562 72.996094 218.355469 73.175781 C 218.613281 73.359375 218.832031 73.542969 219.007812 73.734375 C 219.1875 73.925781 219.324219 74.125 219.417969 74.324219 C 219.515625 74.523438 219.570312 74.726562 219.585938 74.933594 Z M 219.585938 74.933594 " fill-opacity="1" fill-rule="nonzero"/><path fill="#69ce4d" d="M 66.972656 9.625 C 66.972656 9.625 85.855469 -0.046875 117.015625 6.539062 C 148.171875 13.117188 169.078125 30.820312 183.621094 50.433594 C 183.621094 50.433594 143.191406 62.660156 112.566406 50.265625 C 81.941406 37.875 66.972656 9.636719 66.972656 9.636719 Z M 66.972656 9.625 " fill-opacity="1" fill-rule="nonzero"/><path fill="#529730" d="M 167.164062 44.53125 C 167.164062 44.53125 134.167969 36.453125 85.335938 16.746094 C 85.335938 16.746094 139.207031 28.09375 167.164062 44.53125 Z M 167.164062 44.53125 " fill-opacity="1" fill-rule="nonzero"/><g clip-path="url(#171304b0a1)"><path fill="#69ce4d" d="M 5.574219 94.691406 C 5.574219 94.691406 21.230469 67.421875 65.257812 50.414062 C 109.289062 33.414062 149.5625 38.511719 183.46875 51.128906 C 183.46875 51.128906 143.105469 98.988281 95.035156 108.332031 C 46.964844 117.679688 5.566406 94.683594 5.566406 94.683594 Z M 5.574219 94.691406 " fill-opacity="1" fill-rule="nonzero"/></g><path fill="#529730" d="M 194.027344 81.050781 C 191.660156 81.050781 189.714844 79.15625 189.675781 76.773438 C 189.667969 76.011719 189.484375 64.121094 190.265625 52.636719 C 188.304688 53.304688 186.3125 53.835938 184.367188 54.214844 C 182.007812 54.679688 179.726562 53.140625 179.261719 50.78125 C 178.796875 48.417969 180.335938 46.136719 182.695312 45.671875 C 186.4375 44.9375 189.191406 43.960938 191.234375 42.925781 C 191.628906 40.136719 192.121094 37.632812 192.730469 35.628906 C 194.753906 29.003906 199.035156 29.042969 200.304688 29.207031 C 203.457031 29.632812 205.652344 32.476562 205.765625 36.296875 C 205.914062 41.15625 203.28125 45.042969 199.386719 47.976562 C 198.371094 58.007812 198.273438 71.007812 198.371094 76.628906 C 198.410156 79.027344 196.492188 81.011719 194.09375 81.050781 C 194.066406 81.050781 194.046875 81.050781 194.019531 81.050781 Z M 194.027344 81.050781 " fill-opacity="1" fill-rule="nonzero"/><path fill="#529730" d="M 158.265625 57.117188 C 158.265625 57.117188 110.75 73.746094 34.152344 88.714844 C 34.152344 88.714844 110.265625 59.285156 158.265625 57.117188 Z M 158.265625 57.117188 " fill-opacity="1" fill-rule="nonzero"/><path fill="#ffffff" d="M 108.503906 138.515625 C 83.304688 165.488281 73.777344 205.046875 84.195312 240.511719 C 85.945312 246.472656 95.277344 243.9375 93.515625 237.9375 C 84.078125 205.8125 92.453125 169.851562 115.332031 145.355469 C 119.578125 140.808594 112.75 133.960938 108.496094 138.515625 Z M 108.503906 138.515625 " fill-opacity="0.8" fill-rule="nonzero"/><path fill="#ffffff" d="M 97.664062 265.664062 C 103.882812 265.664062 103.902344 255.992188 97.664062 255.992188 C 91.425781 255.992188 91.425781 265.664062 97.664062 265.664062 Z M 97.664062 265.664062 " fill-opacity="0.8" fill-rule="nonzero"/><g fill="#ebd617" fill-opacity="1"><g transform="translate(153.477388, 243.88246)"><g><path d="M 2.34375 -18.140625 L 5.625 -18.140625 C 7.8125 -18.140625 9.398438 -18.660156 10.390625 -19.703125 C 11.390625 -20.742188 11.890625 -22.304688 11.890625 -24.390625 L 11.890625 -77.078125 C 11.890625 -80.941406 9.800781 -82.875 5.625 -82.875 L 2.34375 -82.875 L 2.34375 -101.171875 L 63.171875 -101.171875 C 72.128906 -101.171875 79.210938 -98.796875 84.421875 -94.046875 C 89.640625 -89.304688 92.25 -82.347656 92.25 -73.171875 C 92.25 -68.796875 91 -64.648438 88.5 -60.734375 C 86 -56.828125 82.5625 -53.675781 78.1875 -51.28125 C 83.289062 -48.988281 87.144531 -46.097656 89.75 -42.609375 C 92.351562 -39.117188 93.65625 -34.503906 93.65625 -28.765625 C 93.65625 -19.804688 90.941406 -12.769531 85.515625 -7.65625 C 80.097656 -2.550781 72.960938 0 64.109375 0 L 2.34375 0 Z M 52.84375 -59.890625 C 55.769531 -59.890625 58.300781 -60.851562 60.4375 -62.78125 C 62.570312 -64.707031 63.640625 -67.597656 63.640625 -71.453125 C 63.640625 -74.992188 62.648438 -77.804688 60.671875 -79.890625 C 58.691406 -81.984375 56.03125 -83.03125 52.6875 -83.03125 L 40.8125 -83.03125 L 40.8125 -59.890625 Z M 53.78125 -18.140625 C 57.125 -18.140625 59.863281 -19.101562 62 -21.03125 C 64.132812 -22.957031 65.203125 -25.953125 65.203125 -30.015625 C 65.203125 -34.191406 64.03125 -37.113281 61.6875 -38.78125 C 59.34375 -40.445312 56.550781 -41.28125 53.3125 -41.28125 L 40.8125 -41.28125 L 40.8125 -18.140625 Z M 53.78125 -18.140625 "/></g></g></g></svg>