<svg xmlns="http://www.w3.org/2000/svg" xmlns:xlink="http://www.w3.org/1999/xlink" width="500" zoomAndPan="magnify" viewBox="0 0 375 374.999991" height="500" preserveAspectRatio="xMidYMid meet" version="1.0"><defs><g/></defs><path fill="#d4a852" d="M 187.5 0 C 83.984375 0 0 83.984375 0 187.5 C 0 291.015625 83.984375 375 187.5 375 C 291.015625 375 375 291.015625 375 187.5 C 375 83.984375 291.015625 0 187.5 0 Z M 306.796875 306.796875 C 274.921875 338.671875 232.578125 356.25 187.5 356.25 C 142.421875 356.25 100.078125 338.671875 68.203125 306.796875 C 36.328125 274.921875 18.75 232.578125 18.75 187.5 C 18.75 142.421875 36.328125 100.078125 68.203125 68.203125 C 100.078125 36.328125 142.421875 18.75 187.5 18.75 C 232.578125 18.75 274.921875 36.328125 306.796875 68.203125 C 338.671875 100.078125 356.25 142.421875 356.25 187.5 C 356.25 232.578125 338.671875 274.921875 306.796875 306.796875 Z M 298.28125 77.34375 C 268.75 47.8125 229.53125 31.5625 187.8125 31.5625 C 146.09375 31.5625 106.796875 47.8125 77.34375 77.34375 C 47.8125 106.875 31.5625 146.09375 31.5625 187.8125 C 31.5625 226.875 45.78125 263.75 71.875 292.5 C 85.15625 260.3125 111.484375 234.921875 144.296875 222.890625 C 156.953125 230 171.484375 233.984375 186.953125 233.984375 C 202.578125 233.984375 217.1875 229.84375 229.921875 222.65625 C 263.203125 234.6875 289.921875 260.46875 303.203125 293.046875 C 329.609375 264.21875 344.140625 227.03125 344.140625 187.65625 C 344.0625 146.09375 327.8125 106.796875 298.28125 77.34375 Z M 186.875 221.5625 C 145.46875 221.5625 111.875 187.96875 111.875 146.5625 C 111.875 105.15625 145.46875 71.5625 186.875 71.5625 C 228.28125 71.5625 261.875 105.15625 261.875 146.5625 C 261.875 187.96875 228.28125 221.5625 186.875 221.5625 Z M 186.875 221.5625 " fill-opacity="1" fill-rule="nonzero"/><g fill="#d4a852" fill-opacity="1"><g transform="translate(138.987271, 178.571134)"><g><path d="M 2.046875 -15.796875 L 5.3125 -15.796875 C 7.851562 -15.796875 9.597656 -16.066406 10.546875 -16.609375 C 11.503906 -17.160156 12.347656 -18.4375 13.078125 -20.4375 L 36.375 -88.140625 L 61.03125 -88.140625 L 83.90625 -20.4375 C 84.632812 -18.4375 85.472656 -17.160156 86.421875 -16.609375 C 87.378906 -16.066406 89.128906 -15.796875 91.671875 -15.796875 L 94.9375 -15.796875 L 94.9375 0 L 55.171875 0 L 55.171875 -15.796875 L 60.34375 -15.796875 L 57.484375 -25.75 L 39.78125 -25.75 L 36.78125 -15.796875 L 41.953125 -15.796875 L 41.953125 0 L 2.046875 0 Z M 53.9375 -38.140625 L 48.90625 -56.265625 L 43.453125 -38.140625 Z M 53.9375 -38.140625 "/></g></g></g></svg>