<svg xmlns="http://www.w3.org/2000/svg" xmlns:xlink="http://www.w3.org/1999/xlink" width="500" zoomAndPan="magnify" viewBox="0 0 375 374.999991" height="500" preserveAspectRatio="xMidYMid meet" version="1.0"><defs><g/><clipPath id="7303d71fb9"><path d="M 0 0 L 375 0 L 375 372.945312 L 0 372.945312 Z M 0 0 " clip-rule="nonzero"/></clipPath></defs><g clip-path="url(#7303d71fb9)"><path fill="#d4a852" d="M 187.5 -2.054688 C 83.984375 -2.054688 0 81.929688 0 185.445312 C 0 288.960938 83.984375 372.945312 187.5 372.945312 C 291.015625 372.945312 375 288.960938 375 185.445312 C 375 81.929688 291.015625 -2.054688 187.5 -2.054688 Z M 306.796875 304.742188 C 274.921875 336.617188 232.578125 354.195312 187.5 354.195312 C 142.421875 354.195312 100.078125 336.617188 68.203125 304.742188 C 36.328125 272.867188 18.75 230.523438 18.75 185.445312 C 18.75 140.367188 36.328125 98.023438 68.203125 66.148438 C 100.078125 34.273438 142.421875 16.695312 187.5 16.695312 C 232.578125 16.695312 274.921875 34.273438 306.796875 66.148438 C 338.671875 98.023438 356.25 140.367188 356.25 185.445312 C 356.25 230.523438 338.671875 272.867188 306.796875 304.742188 Z M 298.28125 75.289062 C 268.75 45.757812 229.53125 29.507812 187.8125 29.507812 C 146.09375 29.507812 106.796875 45.757812 77.34375 75.289062 C 47.8125 104.820312 31.5625 144.039062 31.5625 185.757812 C 31.5625 224.820312 45.78125 261.695312 71.875 290.445312 C 85.15625 258.257812 111.484375 232.867188 144.296875 220.835938 C 156.953125 227.945312 171.484375 231.929688 186.953125 231.929688 C 202.578125 231.929688 217.1875 227.789062 229.921875 220.601562 C 263.203125 232.632812 289.921875 258.414062 303.203125 290.992188 C 329.609375 262.164062 344.140625 224.976562 344.140625 185.601562 C 344.0625 144.039062 327.8125 104.742188 298.28125 75.289062 Z M 186.875 219.507812 C 145.46875 219.507812 111.875 185.914062 111.875 144.507812 C 111.875 103.101562 145.46875 69.507812 186.875 69.507812 C 228.28125 69.507812 261.875 103.101562 261.875 144.507812 C 261.875 185.914062 228.28125 219.507812 186.875 219.507812 Z M 186.875 219.507812 " fill-opacity="1" fill-rule="nonzero"/></g><g fill="#d4a852" fill-opacity="1"><g transform="translate(145.663663, 179.308145)"><g><path d="M 50.125 2.046875 C 39.59375 2.046875 30.738281 0.140625 23.5625 -3.671875 C 16.382812 -7.492188 11.003906 -12.804688 7.421875 -19.609375 C 3.835938 -26.421875 2.046875 -34.320312 2.046875 -43.3125 C 2.046875 -57.394531 5.789062 -68.722656 13.28125 -77.296875 C 20.769531 -85.878906 32.097656 -90.171875 47.265625 -90.171875 C 54.890625 -90.171875 61.269531 -89.488281 66.40625 -88.125 C 71.539062 -86.769531 76.238281 -84.546875 80.5 -81.453125 L 80.5 -62.65625 L 55.3125 -62.65625 L 55.3125 -73.421875 C 52.945312 -73.960938 50.265625 -74.234375 47.265625 -74.234375 C 40.546875 -74.234375 35.457031 -71.53125 32 -66.125 C 28.550781 -60.726562 26.828125 -53.125 26.828125 -43.3125 C 26.828125 -33.6875 28.800781 -26.375 32.75 -21.375 C 36.707031 -16.382812 42.953125 -13.890625 51.484375 -13.890625 C 55.753906 -13.890625 59.566406 -14.34375 62.921875 -15.25 C 66.285156 -16.164062 69.738281 -17.847656 73.28125 -20.296875 L 81.59375 -6.953125 C 76.507812 -3.410156 71.765625 -1.023438 67.359375 0.203125 C 62.953125 1.429688 57.207031 2.046875 50.125 2.046875 Z M 50.125 2.046875 "/></g></g></g></svg>