<svg xmlns="http://www.w3.org/2000/svg" xmlns:xlink="http://www.w3.org/1999/xlink" width="500" zoomAndPan="magnify" viewBox="0 0 375 374.999991" height="500" preserveAspectRatio="xMidYMid meet" version="1.0"><defs><g/><clipPath id="526008a562"><path d="M 0 2.695312 L 375 2.695312 L 375 375 L 0 375 Z M 0 2.695312 " clip-rule="nonzero"/></clipPath></defs><g clip-path="url(#526008a562)"><path fill="#d4a852" d="M 187.5 2.695312 C 83.984375 2.695312 0 86.679688 0 190.195312 C 0 293.710938 83.984375 377.695312 187.5 377.695312 C 291.015625 377.695312 375 293.710938 375 190.195312 C 375 86.679688 291.015625 2.695312 187.5 2.695312 Z M 306.796875 309.492188 C 274.921875 341.367188 232.578125 358.945312 187.5 358.945312 C 142.421875 358.945312 100.078125 341.367188 68.203125 309.492188 C 36.328125 277.617188 18.75 235.273438 18.75 190.195312 C 18.75 145.117188 36.328125 102.773438 68.203125 70.898438 C 100.078125 39.023438 142.421875 21.445312 187.5 21.445312 C 232.578125 21.445312 274.921875 39.023438 306.796875 70.898438 C 338.671875 102.773438 356.25 145.117188 356.25 190.195312 C 356.25 235.273438 338.671875 277.617188 306.796875 309.492188 Z M 298.28125 80.039062 C 268.75 50.507812 229.53125 34.257812 187.8125 34.257812 C 146.09375 34.257812 106.796875 50.507812 77.34375 80.039062 C 47.8125 109.570312 31.5625 148.789062 31.5625 190.507812 C 31.5625 229.570312 45.78125 266.445312 71.875 295.195312 C 85.15625 263.007812 111.484375 237.617188 144.296875 225.585938 C 156.953125 232.695312 171.484375 236.679688 186.953125 236.679688 C 202.578125 236.679688 217.1875 232.539062 229.921875 225.351562 C 263.203125 237.382812 289.921875 263.164062 303.203125 295.742188 C 329.609375 266.914062 344.140625 229.726562 344.140625 190.351562 C 344.0625 148.789062 327.8125 109.492188 298.28125 80.039062 Z M 186.875 224.257812 C 145.46875 224.257812 111.875 190.664062 111.875 149.257812 C 111.875 107.851562 145.46875 74.257812 186.875 74.257812 C 228.28125 74.257812 261.875 107.851562 261.875 149.257812 C 261.875 190.664062 228.28125 224.257812 186.875 224.257812 Z M 186.875 224.257812 " fill-opacity="1" fill-rule="nonzero"/></g><g fill="#d4a852" fill-opacity="1"><g transform="translate(145.663663, 185.918515)"><g><path d="M 2.046875 -15.796875 L 4.90625 -15.796875 C 6.8125 -15.796875 8.195312 -16.25 9.0625 -17.15625 C 9.925781 -18.070312 10.359375 -19.4375 10.359375 -21.25 L 10.359375 -67.15625 C 10.359375 -70.519531 8.539062 -72.203125 4.90625 -72.203125 L 2.046875 -72.203125 L 2.046875 -88.140625 L 55.03125 -88.140625 C 62.84375 -88.140625 69.019531 -86.070312 73.5625 -81.9375 C 78.101562 -77.800781 80.375 -71.738281 80.375 -63.75 C 80.375 -59.9375 79.28125 -56.328125 77.09375 -52.921875 C 74.914062 -49.515625 71.921875 -46.769531 68.109375 -44.6875 C 72.554688 -42.6875 75.914062 -40.164062 78.1875 -37.125 C 80.457031 -34.082031 81.59375 -30.0625 81.59375 -25.0625 C 81.59375 -17.25 79.226562 -11.117188 74.5 -6.671875 C 69.78125 -2.222656 63.5625 0 55.84375 0 L 2.046875 0 Z M 46.046875 -52.171875 C 48.585938 -52.171875 50.785156 -53.007812 52.640625 -54.6875 C 54.503906 -56.375 55.4375 -58.894531 55.4375 -62.25 C 55.4375 -65.34375 54.570312 -67.796875 52.84375 -69.609375 C 51.125 -71.421875 48.8125 -72.328125 45.90625 -72.328125 L 35.546875 -72.328125 L 35.546875 -52.171875 Z M 46.859375 -15.796875 C 49.765625 -15.796875 52.144531 -16.632812 54 -18.3125 C 55.863281 -20 56.796875 -22.613281 56.796875 -26.15625 C 56.796875 -29.789062 55.773438 -32.332031 53.734375 -33.78125 C 51.691406 -35.238281 49.265625 -35.96875 46.453125 -35.96875 L 35.546875 -35.96875 L 35.546875 -15.796875 Z M 46.859375 -15.796875 "/></g></g></g></svg>