<svg xmlns="http://www.w3.org/2000/svg" xmlns:xlink="http://www.w3.org/1999/xlink" width="500" zoomAndPan="magnify" viewBox="0 0 375 374.999991" height="500" preserveAspectRatio="xMidYMid meet" version="1.0"><defs><g/><clipPath id="2bd2ccb47b"><path d="M 0 1.378906 L 375 1.378906 L 375 375 L 0 375 Z M 0 1.378906 " clip-rule="nonzero"/></clipPath></defs><g clip-path="url(#2bd2ccb47b)"><path fill="#d4a852" d="M 187.5 1.378906 C 83.984375 1.378906 0 85.363281 0 188.878906 C 0 292.394531 83.984375 376.378906 187.5 376.378906 C 291.015625 376.378906 375 292.394531 375 188.878906 C 375 85.363281 291.015625 1.378906 187.5 1.378906 Z M 306.796875 308.175781 C 274.921875 340.050781 232.578125 357.628906 187.5 357.628906 C 142.421875 357.628906 100.078125 340.050781 68.203125 308.175781 C 36.328125 276.300781 18.75 233.957031 18.75 188.878906 C 18.75 143.800781 36.328125 101.457031 68.203125 69.582031 C 100.078125 37.707031 142.421875 20.128906 187.5 20.128906 C 232.578125 20.128906 274.921875 37.707031 306.796875 69.582031 C 338.671875 101.457031 356.25 143.800781 356.25 188.878906 C 356.25 233.957031 338.671875 276.300781 306.796875 308.175781 Z M 298.28125 78.722656 C 268.75 49.191406 229.53125 32.941406 187.8125 32.941406 C 146.09375 32.941406 106.796875 49.191406 77.34375 78.722656 C 47.8125 108.253906 31.5625 147.472656 31.5625 189.191406 C 31.5625 228.253906 45.78125 265.128906 71.875 293.878906 C 85.15625 261.691406 111.484375 236.300781 144.296875 224.269531 C 156.953125 231.378906 171.484375 235.363281 186.953125 235.363281 C 202.578125 235.363281 217.1875 231.222656 229.921875 224.035156 C 263.203125 236.066406 289.921875 261.847656 303.203125 294.425781 C 329.609375 265.597656 344.140625 228.410156 344.140625 189.035156 C 344.0625 147.472656 327.8125 108.175781 298.28125 78.722656 Z M 186.875 222.941406 C 145.46875 222.941406 111.875 189.347656 111.875 147.941406 C 111.875 106.535156 145.46875 72.941406 186.875 72.941406 C 228.28125 72.941406 261.875 106.535156 261.875 147.941406 C 261.875 189.347656 228.28125 222.941406 186.875 222.941406 Z M 186.875 222.941406 " fill-opacity="1" fill-rule="nonzero"/></g><g fill="#d4a852" fill-opacity="1"><g transform="translate(150.169917, 199.647649)"><g><path d="M 2.046875 -15.796875 L 4.90625 -15.796875 C 8.625 -15.796875 10.484375 -17.613281 10.484375 -21.25 L 10.484375 -67.15625 C 10.484375 -70.519531 8.625 -72.203125 4.90625 -72.203125 L 2.046875 -72.203125 L 2.046875 -88.140625 L 72.609375 -88.140625 L 72.609375 -65.25 L 49.71875 -65.25 L 49.71875 -67.03125 C 49.71875 -70.570312 47.859375 -72.34375 44.140625 -72.34375 L 35.6875 -72.34375 L 35.6875 -51.90625 L 51.359375 -51.90625 L 51.359375 -36.109375 L 35.6875 -36.109375 L 35.6875 -20.84375 C 35.6875 -17.476562 37.503906 -15.796875 41.140625 -15.796875 L 44 -15.796875 L 44 0 L 2.046875 0 Z M 2.046875 -15.796875 "/></g></g></g></svg>