<svg xmlns="http://www.w3.org/2000/svg" xmlns:xlink="http://www.w3.org/1999/xlink" width="500" zoomAndPan="magnify" viewBox="0 0 375 374.999991" height="500" preserveAspectRatio="xMidYMid meet" version="1.0"><defs><g/><clipPath id="badc5f672a"><path d="M 0 0.542969 L 375 0.542969 L 375 375 L 0 375 Z M 0 0.542969 " clip-rule="nonzero"/></clipPath></defs><g clip-path="url(#badc5f672a)"><path fill="#d4a852" d="M 187.5 0.542969 C 83.984375 0.542969 0 84.527344 0 188.042969 C 0 291.558594 83.984375 375.542969 187.5 375.542969 C 291.015625 375.542969 375 291.558594 375 188.042969 C 375 84.527344 291.015625 0.542969 187.5 0.542969 Z M 306.796875 307.339844 C 274.921875 339.214844 232.578125 356.792969 187.5 356.792969 C 142.421875 356.792969 100.078125 339.214844 68.203125 307.339844 C 36.328125 275.464844 18.75 233.121094 18.75 188.042969 C 18.75 142.964844 36.328125 100.621094 68.203125 68.746094 C 100.078125 36.871094 142.421875 19.292969 187.5 19.292969 C 232.578125 19.292969 274.921875 36.871094 306.796875 68.746094 C 338.671875 100.621094 356.25 142.964844 356.25 188.042969 C 356.25 233.121094 338.671875 275.464844 306.796875 307.339844 Z M 298.28125 77.886719 C 268.75 48.355469 229.53125 32.105469 187.8125 32.105469 C 146.09375 32.105469 106.796875 48.355469 77.34375 77.886719 C 47.8125 107.417969 31.5625 146.636719 31.5625 188.355469 C 31.5625 227.417969 45.78125 264.292969 71.875 293.042969 C 85.15625 260.855469 111.484375 235.464844 144.296875 223.433594 C 156.953125 230.542969 171.484375 234.527344 186.953125 234.527344 C 202.578125 234.527344 217.1875 230.386719 229.921875 223.199219 C 263.203125 235.230469 289.921875 261.011719 303.203125 293.589844 C 329.609375 264.761719 344.140625 227.574219 344.140625 188.199219 C 344.0625 146.636719 327.8125 107.339844 298.28125 77.886719 Z M 186.875 222.105469 C 145.46875 222.105469 111.875 188.511719 111.875 147.105469 C 111.875 105.699219 145.46875 72.105469 186.875 72.105469 C 228.28125 72.105469 261.875 105.699219 261.875 147.105469 C 261.875 188.511719 228.28125 222.105469 186.875 222.105469 Z M 186.875 222.105469 " fill-opacity="1" fill-rule="nonzero"/></g><g fill="#d4a852" fill-opacity="1"><g transform="translate(150.169917, 194.161394)"><g><path d="M 2.046875 -15.796875 L 4.90625 -15.796875 C 8.625 -15.796875 10.484375 -17.613281 10.484375 -21.25 L 10.484375 -67.15625 C 10.484375 -70.519531 8.625 -72.203125 4.90625 -72.203125 L 2.046875 -72.203125 L 2.046875 -88.140625 L 72.609375 -88.140625 L 72.609375 -65.25 L 49.71875 -65.25 L 49.71875 -67.03125 C 49.71875 -70.570312 47.859375 -72.34375 44.140625 -72.34375 L 35.6875 -72.34375 L 35.6875 -51.90625 L 51.359375 -51.90625 L 51.359375 -36.109375 L 35.6875 -36.109375 L 35.6875 -15.796875 L 44.140625 -15.796875 C 47.859375 -15.796875 49.71875 -17.613281 49.71875 -21.25 L 49.71875 -22.890625 L 72.609375 -22.890625 L 72.609375 0 L 2.046875 0 Z M 2.046875 -15.796875 "/></g></g></g></svg>