<svg xmlns="http://www.w3.org/2000/svg" xmlns:xlink="http://www.w3.org/1999/xlink" width="500" zoomAndPan="magnify" viewBox="0 0 375 374.999991" height="500" preserveAspectRatio="xMidYMid meet" version="1.0"><defs><g/><clipPath id="275c0cd368"><path d="M 0 0 L 375 0 L 375 373.777344 L 0 373.777344 Z M 0 0 " clip-rule="nonzero"/></clipPath></defs><g clip-path="url(#275c0cd368)"><path fill="#d4a852" d="M 187.5 -1.222656 C 83.984375 -1.222656 0 82.761719 0 186.277344 C 0 289.792969 83.984375 373.777344 187.5 373.777344 C 291.015625 373.777344 375 289.792969 375 186.277344 C 375 82.761719 291.015625 -1.222656 187.5 -1.222656 Z M 306.796875 305.574219 C 274.921875 337.449219 232.578125 355.027344 187.5 355.027344 C 142.421875 355.027344 100.078125 337.449219 68.203125 305.574219 C 36.328125 273.699219 18.75 231.355469 18.75 186.277344 C 18.75 141.199219 36.328125 98.855469 68.203125 66.980469 C 100.078125 35.105469 142.421875 17.527344 187.5 17.527344 C 232.578125 17.527344 274.921875 35.105469 306.796875 66.980469 C 338.671875 98.855469 356.25 141.199219 356.25 186.277344 C 356.25 231.355469 338.671875 273.699219 306.796875 305.574219 Z M 298.28125 76.121094 C 268.75 46.589844 229.53125 30.339844 187.8125 30.339844 C 146.09375 30.339844 106.796875 46.589844 77.34375 76.121094 C 47.8125 105.652344 31.5625 144.871094 31.5625 186.589844 C 31.5625 225.652344 45.78125 262.527344 71.875 291.277344 C 85.15625 259.089844 111.484375 233.699219 144.296875 221.667969 C 156.953125 228.777344 171.484375 232.761719 186.953125 232.761719 C 202.578125 232.761719 217.1875 228.621094 229.921875 221.433594 C 263.203125 233.464844 289.921875 259.246094 303.203125 291.824219 C 329.609375 262.996094 344.140625 225.808594 344.140625 186.433594 C 344.0625 144.871094 327.8125 105.574219 298.28125 76.121094 Z M 186.875 220.339844 C 145.46875 220.339844 111.875 186.746094 111.875 145.339844 C 111.875 103.933594 145.46875 70.339844 186.875 70.339844 C 228.28125 70.339844 261.875 103.933594 261.875 145.339844 C 261.875 186.746094 228.28125 220.339844 186.875 220.339844 Z M 186.875 220.339844 " fill-opacity="1" fill-rule="nonzero"/></g><g fill="#d4a852" fill-opacity="1"><g transform="translate(143.906246, 192.397019)"><g><path d="M 2.046875 -15.796875 L 4.90625 -15.796875 C 8.625 -15.796875 10.484375 -17.613281 10.484375 -21.25 L 10.484375 -67.15625 C 10.484375 -70.519531 8.625 -72.203125 4.90625 -72.203125 L 2.046875 -72.203125 L 2.046875 -88.140625 L 46.1875 -88.140625 C 59.175781 -88.140625 68.914062 -84.367188 75.40625 -76.828125 C 81.894531 -69.296875 85.140625 -58.265625 85.140625 -43.734375 C 85.140625 -35.460938 83.6875 -28.035156 80.78125 -21.453125 C 77.875 -14.867188 73.492188 -9.644531 67.640625 -5.78125 C 61.785156 -1.925781 54.632812 0 46.1875 0 L 2.046875 0 Z M 42.375 -15.796875 C 49.09375 -15.796875 53.742188 -18.085938 56.328125 -22.671875 C 58.921875 -27.265625 60.21875 -34.285156 60.21875 -43.734375 C 60.21875 -53.453125 58.921875 -60.648438 56.328125 -65.328125 C 53.742188 -70.003906 49.09375 -72.34375 42.375 -72.34375 L 35.6875 -72.34375 L 35.6875 -15.796875 Z M 42.375 -15.796875 "/></g></g></g></svg>